PathFileType	4	(X/Y/Z)	C:\Users\dbl\Desktop\LZH\BX\bx_y_5_901.trc
DataRate	CameraRate	NumFrames	NumMarkers	Units	OrigDataRate	OrigDataStartFrame	OrigNumFrames
50.00	50.00	      4	43	mm	50.00	391	      1562
Frame#	Time	Top.Head			R.Acromium			L.Acromium			Sternum			R.ASIS			L.ASIS			V.Sacral			R.Thigh.Upper			R.Thigh.Front			R.Thigh.Rear			R.Knee.Lat			R.Knee.Med			R.Shank.Upper			R.Shank.Front			R.Shank.Rear			R.Ankle.Lat			R.Midfoot.Lat			R.Toe.Lat			R.Toe.Tip			R.Toe.Med			R.Ankle.Med			R.Midfoot.Sup			R.Heel			L.Thigh.Upper			L.Thigh.Front			L.Thigh.Rear			L.Knee.Lat			L.Knee.Med			L.Shank.Upper			L.Shank.Front			L.Shank.Rear			L.Ankle.Lat			L.Midfoot.Lat			L.Toe.Lat			L.Toe.Tip			L.Toe.Med			L.Ankle.Med			L.Midfoot.Sup			L.Heel			origin1 front left			origin2 front right			origin 3 back right			origin 4 back leftt			
		X1	Y1	Z1	X2	Y2	Z2	X3	Y3	Z3	X4	Y4	Z4	X5	Y5	Z5	X6	Y6	Z6	X7	Y7	Z7	X8	Y8	Z8	X9	Y9	Z9	X10	Y10	Z10	X11	Y11	Z11	X12	Y12	Z12	X13	Y13	Z13	X14	Y14	Z14	X15	Y15	Z15	X16	Y16	Z16	X17	Y17	Z17	X18	Y18	Z18	X19	Y19	Z19	X20	Y20	Z20	X21	Y21	Z21	X22	Y22	Z22	X23	Y23	Z23	X24	Y24	Z24	X25	Y25	Z25	X26	Y26	Z26	X27	Y27	Z27	X28	Y28	Z28	X29	Y29	Z29	X30	Y30	Z30	X31	Y31	Z31	X32	Y32	Z32	X33	Y33	Z33	X34	Y34	Z34	X35	Y35	Z35	X36	Y36	Z36	X37	Y37	Z37	X38	Y38	Z38	X39	Y39	Z39	X40	Y40	Z40	X41	Y41	Z41	X42	Y42	Z42	X43	Y43	Z43	

391	7.800	-92.06360	273.45718	1167.62891	-248.94714	85.01532	983.91425	-295.66934	426.07898	988.82245	-397.38922	245.91681	1053.69226	-754.28912	141.74570	1011.80267	-724.49622	395.92709	994.14069	-921.74811	262.75659	1064.10864	-779.04065	96.29139	863.28717	-724.44238	153.69286	819.57166	-808.94067	88.35526	715.74054	-777.22296	123.06554	585.19409	-752.41443	230.03101	544.50684	-793.31207	121.66009	518.81061	-713.39478	172.66423	540.75726	-809.66333	122.74302	444.33325	-695.29260	138.87141	210.21507	-614.13184	79.66924	165.11961	-568.90411	55.12722	161.91846	-492.66376	101.23163	163.10443	-532.50903	148.77122	165.62790	-646.50909	213.51929	227.19742	-594.60931	187.58592	176.86505	-719.47351	209.39677	170.54662	-765.63275	444.38635	854.52417	-719.49133	382.04309	811.69434	-800.44751	459.43610	722.27106	-790.77771	425.24951	601.47522	-745.66113	316.36383	557.91833	-779.36334	422.01657	543.24786	-722.49261	377.20575	534.86713	-813.31317	430.83328	479.00162	-686.78229	425.48413	210.49753	-582.61426	469.00330	164.45866	-542.60510	477.35449	159.43465	-482.65918	426.27560	166.61868	-526.38544	387.29752	176.42514	-651.50726	334.32870	211.26971	-596.81702	350.83548	172.92740	-732.23035	351.06454	164.61441	-443.88745	448.49280	146.27283	-450.78000	75.42930	144.48804	-806.25226	82.66912	142.60606	-799.91718	458.14749	145.80624	
392	7.820	-90.22217	273.90054	1162.34619	-246.68491	85.15382	979.66449	-294.97650	426.33841	984.96881	-396.25214	245.66678	1052.71448	-754.70972	141.99939	1011.86548	-724.74951	396.35120	994.00305	-920.58203	262.31171	1064.61218	-778.32971	95.97722	863.35785	-723.83398	153.38077	819.54517	-808.42798	88.08478	715.90942	-776.75580	122.82954	585.25073	-751.99060	229.80136	544.63861	-792.97095	121.43101	518.88953	-712.97961	172.53070	540.79926	-809.33325	122.59276	444.42056	-695.22534	138.87207	210.23842	-614.08411	79.71944	165.17470	-568.90320	55.21718	161.80843	-492.63275	101.26635	163.08571	-532.48645	148.80775	165.62160	-646.49078	213.61610	227.02141	-594.61310	187.59692	176.85437	-719.37531	209.38380	170.62460	-765.11993	444.05252	854.50952	-718.95557	381.83429	811.56891	-800.15680	459.12772	722.26715	-790.35388	425.05887	601.55774	-745.29431	316.17343	557.88593	-778.92230	421.84470	543.10175	-722.11096	377.01413	534.90558	-813.04608	430.69574	479.18661	-686.79712	425.42529	210.57973	-582.62939	468.98407	164.44429	-542.63361	477.36783	159.42654	-482.66214	426.26074	166.61037	-526.37683	387.27490	176.46500	-651.58636	334.47247	211.08188	-596.99890	350.97818	172.76805	-732.25977	351.03940	164.61671	-443.87872	448.48358	146.25795	-450.78470	75.43061	144.46725	-806.25580	82.66798	142.60420	-799.90826	458.14072	145.82353	
393	7.840	-88.39294	274.30597	1157.51294	-244.58704	85.26568	975.89459	-294.40753	426.60117	981.65833	-395.18658	245.43100	1051.95776	-755.04187	142.26501	1011.96143	-724.94482	396.77182	993.94269	-919.46143	261.86133	1065.09753	-777.58813	95.64404	863.43372	-723.19250	153.06789	819.52130	-807.87903	87.80920	716.06110	-776.30548	122.57915	585.29572	-751.58008	229.55597	544.76355	-792.64429	121.16755	518.96716	-712.58215	172.37709	540.81738	-809.02759	122.44077	444.46918	-695.17047	138.87633	210.23445	-614.05078	79.75565	165.22327	-568.91052	55.30141	161.70049	-492.60419	101.30045	163.06247	-532.47131	148.83194	165.61957	-646.45825	213.73912	226.83118	-594.61005	187.60954	176.84656	-719.30280	209.37846	170.67427	-764.58246	443.71747	854.51184	-718.38727	381.60550	811.46558	-799.81372	458.78998	722.26440	-789.89758	424.84409	601.64581	-744.88910	315.96887	557.84076	-778.45660	421.64337	543.00079	-721.67365	376.83813	534.94958	-812.74408	430.53745	479.38089	-686.80884	425.35251	210.65680	-582.63898	468.97177	164.43785	-542.66461	477.37180	159.43558	-482.66266	426.24481	166.60526	-526.37964	387.25665	176.52888	-651.64551	334.60941	210.87459	-597.16815	351.11407	172.61078	-732.29242	351.00757	164.62387	-443.86914	448.47849	146.24551	-450.78931	75.43295	144.44926	-806.26135	82.66864	142.60156	-799.89868	458.13403	145.83762	
394	7.860	-86.59735	274.68103	1153.15747	-242.65659	85.35065	972.60907	-293.94394	426.83899	978.90369	-394.19348	245.20958	1051.42078	-755.28546	142.54152	1012.08972	-725.08160	397.18784	993.95789	-918.40869	261.41360	1065.55994	-776.83521	95.29666	863.50391	-722.53735	152.76056	819.49402	-807.30939	87.53255	716.17633	-775.87946	122.31820	585.32990	-751.19586	229.30241	544.87976	-792.33807	120.87724	519.04089	-712.21039	172.19867	540.80774	-808.75427	122.28236	444.48453	-695.12738	138.88226	210.20718	-614.03345	79.78084	165.25822	-568.92139	55.37833	161.60043	-492.57867	101.33172	163.03661	-532.46307	148.84492	165.62047	-646.41388	213.86923	226.65256	-594.60132	187.62630	176.84052	-719.25812	209.38310	170.69128	-764.03717	443.38657	854.52948	-717.81006	381.35355	811.39111	-799.43152	458.43295	722.26569	-789.42383	424.60660	601.73560	-744.46545	315.75620	557.78430	-777.98639	421.41956	542.95874	-721.19678	376.68094	534.99768	-812.41296	430.36926	479.57016	-686.81854	425.26508	210.71814	-582.64508	468.96481	164.44032	-542.69934	477.36249	159.46844	-482.66281	426.22778	166.60558	-526.40021	387.24603	176.61858	-651.68567	334.73932	210.65007	-597.31403	351.22720	172.46695	-732.32910	350.97281	164.62973	-443.86084	448.47800	146.23781	-450.79321	75.43589	144.43762	-806.26752	82.67028	142.59749	-799.88983	458.12708	145.84731	
